# xmcd CD database file
#
# Track frame offsets:
#	150
#	23300
#	43469
#	66712
#	89045
#	113704
#	145454
#	171678
#	195187
#	219980
#
# Disc length: 3328 seconds
#
# Revision: 0
# Processed by: cddbd v1.5.2PL0 Copyright (c) Steve Scherf et al.
# Submitted via: CDex 1.70beta2
#
DISCID=980cfe0a
DTITLE=Malene Mortensen - You Go To My Head
DYEAR=2012
DGENRE=Jazz
TTITLE0=Your Love Is Digital
TTITLE1=My Shining Hour
TTITLE2=Ambiguous Blues
TTITLE3=209 Words To Bridge The Gap Between Perception And Reality
TTITLE4=Tell Him You Got A Hidden Tattoo
TTITLE5=The Constant Companion
TTITLE6=Misty
TTITLE7=Thinner Than A Shell
TTITLE8=You Go To My Head
TTITLE9=No Halo
EXTD=YEAR: 2012
EXTT0=
EXTT1=
EXTT2=
EXTT3=
EXTT4=
EXTT5=
EXTT6=
EXTT7=
EXTT8=
EXTT9=
PLAYORDER=
